<svg id="Layer_1" data-name="Layer 1" xmlns="http://www.w3.org/2000/svg" viewBox="0 0 243.16 80"><defs><style>.cls-1{fill:#fff;}</style></defs><title>logo-white</title><polygon class="cls-1" points="174.84 29.21 174.84 41.76 170.56 41.76 174.84 29.21"/><path class="cls-1" d="M163.45,51.3l8.86-25.19h2.53V0H0V80H174.84V44.86h-5.38l-2.17,6.44h2.91v3.23H161V51.3ZM38.32,54.53,36.2,45.89a6.82,6.82,0,0,0-1.77-3.42,4.61,4.61,0,0,0-3.25-1.09H27.52v9.93h2.85v3.22H21.15V51.31h2.69v-22H21.15V26.11H33a11.79,11.79,0,0,1,3.5.5,8,8,0,0,1,2.78,1.46,6.66,6.66,0,0,1,1.83,2.41,8.06,8.06,0,0,1,.65,3.32,6,6,0,0,1-.38,2.11,7.31,7.31,0,0,1-1.07,1.93,8.43,8.43,0,0,1-1.62,1.59,7.26,7.26,0,0,1-2,1.06,4.16,4.16,0,0,1,1,.6,5,5,0,0,1,.9.93,7.75,7.75,0,0,1,1.32,2.77L41.36,51h2.45l0,3.55ZM68.84,34.15H65v-4.8H54.85v9.1h8.54v3.22H54.85v9.64H65v-4.8h3.84v8H48.49V51.31h2.7v-22h-2.7V26.11H68.84Zm23.37,2.58a7.12,7.12,0,0,1-1.81,2.41,8.78,8.78,0,0,1-2.78,1.64,10.32,10.32,0,0,1-3.61.6H79v9.93h2.85v3.22H72.59V51.31h2.7v-22h-2.7V26.11h11.5a11.86,11.86,0,0,1,3.51.5,8,8,0,0,1,2.77,1.46,6.55,6.55,0,0,1,1.83,2.41,8.06,8.06,0,0,1,.65,3.32A7,7,0,0,1,92.21,36.73Zm25.66,17.8H96.44V51.31h2.7v-22h-2.7V26.11h9.23v3.24h-2.85v22h9.8a1.32,1.32,0,0,0,.6-.14,2,2,0,0,0,.55-.37,1.78,1.78,0,0,0,.39-.51,1.29,1.29,0,0,0,.15-.59V46.11h3.56Zm11.95-25.18h-2.7v22h2.7v3.22h-9.08V51.31h2.7v-22h-2.7V26.11h9.08ZM157.19,50.9a12.69,12.69,0,0,1-4.21,3A13.72,13.72,0,0,1,142.1,54a13.55,13.55,0,0,1-4.34-3.13,13.74,13.74,0,0,1-2.91-4.8,16.88,16.88,0,0,1-1-5.8,16.29,16.29,0,0,1,1-5.73,14.59,14.59,0,0,1,2.81-4.7A13.2,13.2,0,0,1,142,26.71a12.7,12.7,0,0,1,5.43-1.16,12.29,12.29,0,0,1,4.51.74,12.7,12.7,0,0,1,3.21,1.77,13,13,0,0,1,2.28,2.21h2v3.34h-4A9.38,9.38,0,0,0,152,30.26,8.91,8.91,0,0,0,147.4,29a8.63,8.63,0,0,0-4,.92,9.74,9.74,0,0,0-3.08,2.47,11.27,11.27,0,0,0-2,3.58,12.73,12.73,0,0,0-.71,4.28,13,13,0,0,0,.78,4.72,10.64,10.64,0,0,0,2.05,3.41,11.09,11.09,0,0,0,3,2.27,8.23,8.23,0,0,0,3.91.91,9.22,9.22,0,0,0,5.15-1.43,11,11,0,0,0,3.75-4.72L159.61,47A11.54,11.54,0,0,1,157.19,50.9Z"/><path class="cls-1" d="M37.86,33.83a4.74,4.74,0,0,1-.38,2,3.73,3.73,0,0,1-1,1.39,4.23,4.23,0,0,1-1.53.85,6.79,6.79,0,0,1-2,.28H27.52V29.35h5a5.82,5.82,0,0,1,4,1.19A4.26,4.26,0,0,1,37.86,33.83Z"/><path class="cls-1" d="M89,33.8a4.81,4.81,0,0,1-.37,2,3.79,3.79,0,0,1-1,1.4,4.41,4.41,0,0,1-1.53.86,6.4,6.4,0,0,1-2,.29H79V29.35h4.65a5.83,5.83,0,0,1,4.06,1.18A4.17,4.17,0,0,1,89,33.8Z"/><polygon class="cls-1" points="189.53 51.3 189.53 54.53 180.28 54.53 180.28 51.3 182.65 51.3 180.41 44.86 174.84 44.86 174.84 41.76 179.32 41.76 174.9 29.02 174.84 29.22 174.84 26.11 177.85 26.11 186.65 51.3 189.53 51.3"/><path class="cls-1" d="M215.06,51H212.6L211,44.8a7.89,7.89,0,0,0-.58-1.54,8.56,8.56,0,0,0-.76-1.24,4.69,4.69,0,0,0-.9-.93,6.13,6.13,0,0,0-.93-.61,6.62,6.62,0,0,0,2-1.06,6.88,6.88,0,0,0,1.63-1.6,7,7,0,0,0,1.09-1.92,6.23,6.23,0,0,0,.38-2.11,7.92,7.92,0,0,0-.67-3.33,7,7,0,0,0-1.82-2.4,8.24,8.24,0,0,0-2.79-1.47,12.07,12.07,0,0,0-3.49-.48H192.38v3.23h2.72v22h-2.72v3.23h9.21V51.3h-2.85V41.38h3.68a4.49,4.49,0,0,1,3.23,1.08,6.88,6.88,0,0,1,1.8,3.43l2.11,8.64h5.53Zm-8.89-13a6.36,6.36,0,0,1-2,.28h-5.47v-9h5a5.82,5.82,0,0,1,4,1.19,4.26,4.26,0,0,1,1.28,3.29,5.32,5.32,0,0,1-.35,2,4.11,4.11,0,0,1-1,1.4A4.42,4.42,0,0,1,206.17,38Z"/><polygon class="cls-1" points="243.16 26.11 243.16 33.6 239.32 33.6 239.32 29.18 231.8 29.18 231.8 51.3 234.74 51.3 234.74 54.53 225.53 54.53 225.53 51.3 228.15 51.3 228.15 29.18 221.65 29.18 221.65 33.6 217.81 33.6 217.81 26.11 243.16 26.11"/></svg>